<mxfile host="app.diagrams.net" modified="2021-03-08T10:41:43.901Z" agent="5.0 (Macintosh; Intel Mac OS X 10_15_7) AppleWebKit/537.36 (KHTML, like Gecko) Chrome/83.0.4103.106 Safari/537.36" etag="j3GLumBSgMBuXYBwRKVR" version="14.4.3" type="github">
  <diagram name="Page-1" id="74e2e168-ea6b-b213-b513-2b3c1d86103e">
    <mxGraphModel dx="1527" dy="896" grid="1" gridSize="10" guides="1" tooltips="1" connect="1" arrows="1" fold="1" page="1" pageScale="1" pageWidth="1100" pageHeight="850" background="#ffffff" math="0" shadow="0">
      <root>
        <mxCell id="0" />
        <mxCell id="1" parent="0" />
        <mxCell id="77e6c97f196da883-1" value="yes" style="swimlane;html=1;childLayout=stackLayout;startSize=20;rounded=0;shadow=0;labelBackgroundColor=none;strokeWidth=1;fontFamily=Verdana;fontSize=8;align=center;" parent="1" vertex="1">
          <mxGeometry x="30" y="50" width="690" height="1260" as="geometry" />
        </mxCell>
        <mxCell id="77e6c97f196da883-2" value="客户端" style="swimlane;html=1;startSize=20;" parent="77e6c97f196da883-1" vertex="1">
          <mxGeometry y="20" width="160" height="1240" as="geometry" />
        </mxCell>
        <mxCell id="77e6c97f196da883-8" value="点击贴纸" style="rounded=1;whiteSpace=wrap;html=1;shadow=0;labelBackgroundColor=none;strokeWidth=1;fontFamily=Verdana;fontSize=8;align=center;" parent="77e6c97f196da883-2" vertex="1">
          <mxGeometry x="20" y="65" width="100" height="60" as="geometry" />
        </mxCell>
        <mxCell id="dgmM8Q6lQUMXP6wNt9RR-6" value="触摸事件" style="rounded=1;whiteSpace=wrap;html=1;shadow=0;labelBackgroundColor=none;strokeWidth=1;fontFamily=Verdana;fontSize=8;align=center;" vertex="1" parent="77e6c97f196da883-2">
          <mxGeometry x="20" y="315" width="100" height="60" as="geometry" />
        </mxCell>
        <mxCell id="77e6c97f196da883-26" style="edgeStyle=orthogonalEdgeStyle;rounded=1;html=1;labelBackgroundColor=none;startArrow=none;startFill=0;startSize=5;endArrow=classicThin;endFill=1;endSize=5;jettySize=auto;orthogonalLoop=1;strokeWidth=1;fontFamily=Verdana;fontSize=8" parent="77e6c97f196da883-1" source="77e6c97f196da883-8" target="77e6c97f196da883-11" edge="1">
          <mxGeometry relative="1" as="geometry" />
        </mxCell>
        <mxCell id="77e6c97f196da883-3" value="EffectSDK" style="swimlane;html=1;startSize=20;" parent="77e6c97f196da883-1" vertex="1">
          <mxGeometry x="160" y="20" width="370" height="1240" as="geometry" />
        </mxCell>
        <mxCell id="dgmM8Q6lQUMXP6wNt9RR-75" style="edgeStyle=orthogonalEdgeStyle;rounded=0;orthogonalLoop=1;jettySize=auto;html=1;entryX=0.5;entryY=0;entryDx=0;entryDy=0;" edge="1" parent="77e6c97f196da883-3" source="dgmM8Q6lQUMXP6wNt9RR-29" target="dgmM8Q6lQUMXP6wNt9RR-37">
          <mxGeometry relative="1" as="geometry" />
        </mxCell>
        <mxCell id="dgmM8Q6lQUMXP6wNt9RR-29" value="" style="rounded=0;whiteSpace=wrap;html=1;" vertex="1" parent="77e6c97f196da883-3">
          <mxGeometry x="15.5" y="260" width="344.5" height="500" as="geometry" />
        </mxCell>
        <mxCell id="dgmM8Q6lQUMXP6wNt9RR-4" style="edgeStyle=orthogonalEdgeStyle;rounded=0;orthogonalLoop=1;jettySize=auto;html=1;entryX=0.5;entryY=0;entryDx=0;entryDy=0;" edge="1" parent="77e6c97f196da883-3" source="77e6c97f196da883-11" target="dgmM8Q6lQUMXP6wNt9RR-1">
          <mxGeometry relative="1" as="geometry" />
        </mxCell>
        <mxCell id="77e6c97f196da883-11" value="解析贴纸" style="rounded=1;whiteSpace=wrap;html=1;shadow=0;labelBackgroundColor=none;strokeWidth=1;fontFamily=Verdana;fontSize=8;align=center;" parent="77e6c97f196da883-3" vertex="1">
          <mxGeometry x="142.75" y="65" width="90" height="60" as="geometry" />
        </mxCell>
        <mxCell id="dgmM8Q6lQUMXP6wNt9RR-69" style="edgeStyle=orthogonalEdgeStyle;rounded=0;orthogonalLoop=1;jettySize=auto;html=1;" edge="1" parent="77e6c97f196da883-3" source="dgmM8Q6lQUMXP6wNt9RR-1" target="dgmM8Q6lQUMXP6wNt9RR-29">
          <mxGeometry relative="1" as="geometry" />
        </mxCell>
        <mxCell id="dgmM8Q6lQUMXP6wNt9RR-1" value="构建新引擎Scene" style="rounded=1;whiteSpace=wrap;html=1;shadow=0;labelBackgroundColor=none;strokeWidth=1;fontFamily=Verdana;fontSize=8;align=center;" vertex="1" parent="77e6c97f196da883-3">
          <mxGeometry x="137.75" y="150" width="100" height="60" as="geometry" />
        </mxCell>
        <mxCell id="dgmM8Q6lQUMXP6wNt9RR-18" style="edgeStyle=orthogonalEdgeStyle;rounded=0;orthogonalLoop=1;jettySize=auto;html=1;entryX=0;entryY=0.5;entryDx=0;entryDy=0;" edge="1" parent="77e6c97f196da883-3" source="dgmM8Q6lQUMXP6wNt9RR-8" target="dgmM8Q6lQUMXP6wNt9RR-9">
          <mxGeometry relative="1" as="geometry" />
        </mxCell>
        <mxCell id="dgmM8Q6lQUMXP6wNt9RR-8" value="status ==&amp;nbsp;&lt;br&gt;IsHolding" style="rhombus;whiteSpace=wrap;html=1;rounded=0;shadow=0;labelBackgroundColor=none;strokeWidth=1;fontFamily=Verdana;fontSize=8;align=center;" vertex="1" parent="77e6c97f196da883-3">
          <mxGeometry x="33" y="436.25" width="80" height="60" as="geometry" />
        </mxCell>
        <mxCell id="dgmM8Q6lQUMXP6wNt9RR-9" value="commandbuffer清空后压入：&lt;br&gt;1.&amp;nbsp;&lt;span style=&quot;background-color: rgb(255 , 252 , 229) ; color: rgb(71 , 106 , 151) ; font-family: &amp;#34;menlo&amp;#34; ; font-size: 11px&quot;&gt;blit&lt;/span&gt;&lt;span class=&quot;s1&quot; style=&quot;font-family: &amp;#34;menlo&amp;#34; ; font-size: 11px&quot;&gt;(&lt;/span&gt;&lt;span style=&quot;background-color: rgb(255 , 252 , 229) ; color: rgb(71 , 106 , 151) ; font-family: &amp;#34;menlo&amp;#34; ; font-size: 11px&quot;&gt;m_currentRT&lt;/span&gt;&lt;span class=&quot;s1&quot; style=&quot;font-family: &amp;#34;menlo&amp;#34; ; font-size: 11px&quot;&gt;, &lt;/span&gt;&lt;span style=&quot;background-color: rgb(255 , 252 , 229) ; color: rgb(71 , 106 , 151) ; font-family: &amp;#34;menlo&amp;#34; ; font-size: 11px&quot;&gt;m_lastRT&lt;/span&gt;&lt;span class=&quot;s1&quot; style=&quot;font-family: &amp;#34;menlo&amp;#34; ; font-size: 11px&quot;&gt;)&lt;br&gt;&lt;/span&gt;2.&amp;nbsp;&lt;span style=&quot;background-color: rgb(255 , 252 , 229) ; color: rgb(71 , 106 , 151) ; font-family: &amp;#34;menlo&amp;#34; ; font-size: 11px&quot;&gt;blit&lt;/span&gt;&lt;span class=&quot;s1&quot; style=&quot;font-family: &amp;#34;menlo&amp;#34; ; font-size: 11px&quot;&gt;(&lt;/span&gt;&lt;span style=&quot;background-color: rgb(255 , 252 , 229) ; color: rgb(71 , 106 , 151) ; font-family: &amp;#34;menlo&amp;#34; ; font-size: 11px&quot;&gt;m_currentCam&lt;/span&gt;&lt;span class=&quot;s1&quot; style=&quot;font-family: &amp;#34;menlo&amp;#34; ; font-size: 11px&quot;&gt;-&amp;gt;&lt;/span&gt;&lt;span style=&quot;background-color: rgb(255 , 252 , 229) ; color: rgb(71 , 106 , 151) ; font-family: &amp;#34;menlo&amp;#34; ; font-size: 11px&quot;&gt;getRenderTexture&lt;/span&gt;&lt;span class=&quot;s1&quot; style=&quot;font-family: &amp;#34;menlo&amp;#34; ; font-size: 11px&quot;&gt;(), &lt;/span&gt;&lt;span style=&quot;background-color: rgb(255 , 252 , 229) ; color: rgb(71 , 106 , 151) ; font-family: &amp;#34;menlo&amp;#34; ; font-size: 11px&quot;&gt;m_waitForRT&lt;/span&gt;&lt;span class=&quot;s1&quot; style=&quot;font-family: &amp;#34;menlo&amp;#34; ; font-size: 11px&quot;&gt;)&lt;/span&gt;&lt;br&gt;status = IsRunning" style="rounded=1;whiteSpace=wrap;html=1;shadow=0;labelBackgroundColor=none;strokeWidth=1;fontFamily=Verdana;fontSize=8;align=center;" vertex="1" parent="77e6c97f196da883-3">
          <mxGeometry x="153.75" y="405" width="152.5" height="122.5" as="geometry" />
        </mxCell>
        <mxCell id="dgmM8Q6lQUMXP6wNt9RR-13" style="edgeStyle=orthogonalEdgeStyle;rounded=0;orthogonalLoop=1;jettySize=auto;html=1;entryX=0;entryY=0.5;entryDx=0;entryDy=0;" edge="1" parent="77e6c97f196da883-3" source="dgmM8Q6lQUMXP6wNt9RR-11" target="dgmM8Q6lQUMXP6wNt9RR-12">
          <mxGeometry relative="1" as="geometry" />
        </mxCell>
        <mxCell id="dgmM8Q6lQUMXP6wNt9RR-19" style="edgeStyle=orthogonalEdgeStyle;rounded=0;orthogonalLoop=1;jettySize=auto;html=1;entryX=0.5;entryY=0;entryDx=0;entryDy=0;" edge="1" parent="77e6c97f196da883-3" source="dgmM8Q6lQUMXP6wNt9RR-11" target="dgmM8Q6lQUMXP6wNt9RR-8">
          <mxGeometry relative="1" as="geometry" />
        </mxCell>
        <mxCell id="dgmM8Q6lQUMXP6wNt9RR-11" value="status == Nothing ?" style="rhombus;whiteSpace=wrap;html=1;rounded=0;shadow=0;labelBackgroundColor=none;strokeWidth=1;fontFamily=Verdana;fontSize=8;align=center;" vertex="1" parent="77e6c97f196da883-3">
          <mxGeometry x="36" y="315" width="74" height="65" as="geometry" />
        </mxCell>
        <mxCell id="dgmM8Q6lQUMXP6wNt9RR-61" style="edgeStyle=orthogonalEdgeStyle;rounded=0;orthogonalLoop=1;jettySize=auto;html=1;entryX=1;entryY=0.5;entryDx=0;entryDy=0;" edge="1" parent="77e6c97f196da883-3" source="dgmM8Q6lQUMXP6wNt9RR-12" target="dgmM8Q6lQUMXP6wNt9RR-60">
          <mxGeometry relative="1" as="geometry">
            <Array as="points">
              <mxPoint x="340" y="348" />
              <mxPoint x="340" y="730" />
            </Array>
          </mxGeometry>
        </mxCell>
        <mxCell id="dgmM8Q6lQUMXP6wNt9RR-12" value="commandBuffer清空&lt;br&gt;status = IsHolding" style="rounded=1;whiteSpace=wrap;html=1;shadow=0;labelBackgroundColor=none;strokeWidth=1;fontFamily=Verdana;fontSize=8;align=center;" vertex="1" parent="77e6c97f196da883-3">
          <mxGeometry x="175" y="312.5" width="110" height="70" as="geometry" />
        </mxCell>
        <mxCell id="dgmM8Q6lQUMXP6wNt9RR-17" style="edgeStyle=orthogonalEdgeStyle;rounded=0;orthogonalLoop=1;jettySize=auto;html=1;entryX=0.5;entryY=0;entryDx=0;entryDy=0;" edge="1" parent="77e6c97f196da883-3" source="dgmM8Q6lQUMXP6wNt9RR-8" target="dgmM8Q6lQUMXP6wNt9RR-56">
          <mxGeometry relative="1" as="geometry">
            <mxPoint x="76" y="575" as="targetPoint" />
          </mxGeometry>
        </mxCell>
        <mxCell id="dgmM8Q6lQUMXP6wNt9RR-21" value="yes" style="text;html=1;strokeColor=none;fillColor=none;align=center;verticalAlign=middle;whiteSpace=wrap;rounded=0;" vertex="1" parent="77e6c97f196da883-3">
          <mxGeometry x="125" y="310" width="40" height="20" as="geometry" />
        </mxCell>
        <mxCell id="dgmM8Q6lQUMXP6wNt9RR-22" value="no" style="text;html=1;strokeColor=none;fillColor=none;align=center;verticalAlign=middle;whiteSpace=wrap;rounded=0;" vertex="1" parent="77e6c97f196da883-3">
          <mxGeometry x="45" y="385" width="40" height="20" as="geometry" />
        </mxCell>
        <mxCell id="dgmM8Q6lQUMXP6wNt9RR-23" value="yes" style="text;html=1;strokeColor=none;fillColor=none;align=center;verticalAlign=middle;whiteSpace=wrap;rounded=0;" vertex="1" parent="77e6c97f196da883-3">
          <mxGeometry x="121" y="430" width="40" height="20" as="geometry" />
        </mxCell>
        <mxCell id="dgmM8Q6lQUMXP6wNt9RR-24" value="no" style="text;html=1;strokeColor=none;fillColor=none;align=center;verticalAlign=middle;whiteSpace=wrap;rounded=0;" vertex="1" parent="77e6c97f196da883-3">
          <mxGeometry x="45" y="500" width="40" height="20" as="geometry" />
        </mxCell>
        <mxCell id="dgmM8Q6lQUMXP6wNt9RR-32" value="&lt;font style=&quot;font-size: 19px&quot;&gt;onEvent&lt;/font&gt;" style="text;html=1;strokeColor=#d6b656;fillColor=#fff2cc;align=center;verticalAlign=middle;whiteSpace=wrap;rounded=0;" vertex="1" parent="77e6c97f196da883-3">
          <mxGeometry x="135.5" y="264" width="99" height="30" as="geometry" />
        </mxCell>
        <mxCell id="dgmM8Q6lQUMXP6wNt9RR-55" value="commandBuffer清空后压入:&lt;br&gt;&lt;p class=&quot;p1&quot; style=&quot;margin: 0px ; font-stretch: normal ; font-size: 11px ; line-height: normal ; font-family: &amp;#34;menlo&amp;#34; ; color: rgb(71 , 106 , 151) ; background-color: rgb(255 , 252 , 229)&quot;&gt;&lt;span class=&quot;s1&quot; style=&quot;color: rgb(0 , 0 , 0)&quot;&gt;&amp;nbsp;1.&amp;nbsp;&lt;/span&gt;blit&lt;span class=&quot;s1&quot; style=&quot;color: rgb(0 , 0 , 0)&quot;&gt;(&lt;/span&gt;m_currentRT&lt;span class=&quot;s1&quot; style=&quot;color: rgb(0 , 0 , 0)&quot;&gt;, &lt;/span&gt;m_waitForRT&lt;span class=&quot;s1&quot; style=&quot;color: rgb(0 , 0 , 0)&quot;&gt;);&lt;/span&gt;&lt;/p&gt;&lt;p class=&quot;p1&quot; style=&quot;margin: 0px ; font-stretch: normal ; font-size: 11px ; line-height: normal ; font-family: &amp;#34;menlo&amp;#34; ; color: rgb(71 , 106 , 151) ; background-color: rgb(255 , 252 , 229)&quot;&gt;&lt;span class=&quot;s1&quot; style=&quot;color: rgb(0 , 0 , 0)&quot;&gt;status = Nothing&lt;/span&gt;&lt;/p&gt;" style="rounded=1;whiteSpace=wrap;html=1;shadow=0;labelBackgroundColor=none;strokeWidth=1;fontFamily=Verdana;fontSize=8;align=center;" vertex="1" parent="77e6c97f196da883-3">
          <mxGeometry x="153.75" y="565" width="145" height="90" as="geometry" />
        </mxCell>
        <mxCell id="dgmM8Q6lQUMXP6wNt9RR-57" style="edgeStyle=orthogonalEdgeStyle;rounded=0;orthogonalLoop=1;jettySize=auto;html=1;entryX=0;entryY=0.5;entryDx=0;entryDy=0;" edge="1" parent="77e6c97f196da883-3" source="dgmM8Q6lQUMXP6wNt9RR-56" target="dgmM8Q6lQUMXP6wNt9RR-55">
          <mxGeometry relative="1" as="geometry" />
        </mxCell>
        <mxCell id="dgmM8Q6lQUMXP6wNt9RR-65" style="edgeStyle=orthogonalEdgeStyle;rounded=0;orthogonalLoop=1;jettySize=auto;html=1;entryX=0.5;entryY=0;entryDx=0;entryDy=0;" edge="1" parent="77e6c97f196da883-3" source="dgmM8Q6lQUMXP6wNt9RR-56" target="dgmM8Q6lQUMXP6wNt9RR-60">
          <mxGeometry relative="1" as="geometry" />
        </mxCell>
        <mxCell id="dgmM8Q6lQUMXP6wNt9RR-56" value="&lt;span style=&quot;font-family: &amp;#34;verdana&amp;#34; ; font-size: 8px&quot;&gt;status == IsRunning&lt;/span&gt;" style="rhombus;whiteSpace=wrap;html=1;" vertex="1" parent="77e6c97f196da883-3">
          <mxGeometry x="33" y="570" width="80" height="80" as="geometry" />
        </mxCell>
        <mxCell id="dgmM8Q6lQUMXP6wNt9RR-60" value="return" style="rounded=1;whiteSpace=wrap;html=1;" vertex="1" parent="77e6c97f196da883-3">
          <mxGeometry x="28.5" y="710" width="89" height="40" as="geometry" />
        </mxCell>
        <mxCell id="dgmM8Q6lQUMXP6wNt9RR-67" value="yes" style="text;html=1;strokeColor=none;fillColor=none;align=center;verticalAlign=middle;whiteSpace=wrap;rounded=0;" vertex="1" parent="77e6c97f196da883-3">
          <mxGeometry x="113" y="590" width="40" height="20" as="geometry" />
        </mxCell>
        <mxCell id="dgmM8Q6lQUMXP6wNt9RR-68" value="no" style="text;html=1;strokeColor=none;fillColor=none;align=center;verticalAlign=middle;whiteSpace=wrap;rounded=0;" vertex="1" parent="77e6c97f196da883-3">
          <mxGeometry x="45" y="660" width="40" height="20" as="geometry" />
        </mxCell>
        <mxCell id="dgmM8Q6lQUMXP6wNt9RR-71" value="&lt;span style=&quot;font-family: &amp;#34;verdana&amp;#34; ; font-size: 8px&quot;&gt;m_currentRT(当前纹理);&amp;nbsp;&lt;/span&gt;&lt;br style=&quot;font-family: &amp;#34;verdana&amp;#34; ; font-size: 8px&quot;&gt;&lt;span style=&quot;font-family: &amp;#34;verdana&amp;#34; ; font-size: 8px&quot;&gt;m_lastRT(上一帧纹理); m_waitForRT(待映射纹理)&lt;/span&gt;&lt;br style=&quot;font-family: &amp;#34;verdana&amp;#34; ; font-size: 8px&quot;&gt;&lt;span style=&quot;font-family: &amp;#34;verdana&amp;#34; ; font-size: 8px&quot;&gt;m_algRT（稠密光流）&lt;/span&gt;" style="rounded=0;whiteSpace=wrap;html=1;fillColor=#f5f5f5;strokeColor=#666666;fontColor=#333333;" vertex="1" parent="77e6c97f196da883-3">
          <mxGeometry x="-45" y="170" width="170" height="75" as="geometry" />
        </mxCell>
        <mxCell id="dgmM8Q6lQUMXP6wNt9RR-37" value="" style="rounded=0;whiteSpace=wrap;html=1;" vertex="1" parent="77e6c97f196da883-3">
          <mxGeometry x="17.87" y="810" width="339.75" height="400" as="geometry" />
        </mxCell>
        <mxCell id="77e6c97f196da883-4" value="Bach" style="swimlane;html=1;startSize=20;" parent="77e6c97f196da883-1" vertex="1">
          <mxGeometry x="530" y="20" width="160" height="1240" as="geometry" />
        </mxCell>
        <mxCell id="77e6c97f196da883-12" value="构建OpticalFlow算法" style="rounded=1;whiteSpace=wrap;html=1;shadow=0;labelBackgroundColor=none;strokeWidth=1;fontFamily=Verdana;fontSize=8;align=center;" parent="77e6c97f196da883-4" vertex="1">
          <mxGeometry x="40" y="65" width="100" height="60" as="geometry" />
        </mxCell>
        <mxCell id="dgmM8Q6lQUMXP6wNt9RR-25" value="稠密光流&lt;br&gt;flow" style="text;html=1;strokeColor=none;fillColor=none;align=center;verticalAlign=middle;whiteSpace=wrap;rounded=0;" vertex="1" parent="77e6c97f196da883-4">
          <mxGeometry x="60" y="260" width="20" height="20" as="geometry" />
        </mxCell>
        <mxCell id="dgmM8Q6lQUMXP6wNt9RR-2" style="edgeStyle=orthogonalEdgeStyle;rounded=0;orthogonalLoop=1;jettySize=auto;html=1;entryX=0;entryY=0.5;entryDx=0;entryDy=0;" edge="1" parent="77e6c97f196da883-1" source="77e6c97f196da883-11" target="77e6c97f196da883-12">
          <mxGeometry relative="1" as="geometry" />
        </mxCell>
        <mxCell id="dgmM8Q6lQUMXP6wNt9RR-20" style="edgeStyle=orthogonalEdgeStyle;rounded=0;orthogonalLoop=1;jettySize=auto;html=1;entryX=0;entryY=0.5;entryDx=0;entryDy=0;" edge="1" parent="77e6c97f196da883-1" source="dgmM8Q6lQUMXP6wNt9RR-6" target="dgmM8Q6lQUMXP6wNt9RR-11">
          <mxGeometry relative="1" as="geometry" />
        </mxCell>
        <mxCell id="dgmM8Q6lQUMXP6wNt9RR-38" style="edgeStyle=orthogonalEdgeStyle;rounded=0;orthogonalLoop=1;jettySize=auto;html=1;entryX=0;entryY=0.5;entryDx=0;entryDy=0;" edge="1" parent="1" source="dgmM8Q6lQUMXP6wNt9RR-39" target="dgmM8Q6lQUMXP6wNt9RR-40">
          <mxGeometry relative="1" as="geometry" />
        </mxCell>
        <mxCell id="dgmM8Q6lQUMXP6wNt9RR-39" value="status == IsHolding" style="rhombus;whiteSpace=wrap;html=1;rounded=0;shadow=0;labelBackgroundColor=none;strokeWidth=1;fontFamily=Verdana;fontSize=8;align=center;" vertex="1" parent="1">
          <mxGeometry x="246" y="1047.5" width="80" height="60" as="geometry" />
        </mxCell>
        <mxCell id="dgmM8Q6lQUMXP6wNt9RR-40" value="设置材质为 m_holdingMat, 并注入待映射纹理m_waitForRT" style="rounded=1;whiteSpace=wrap;html=1;shadow=0;labelBackgroundColor=none;strokeWidth=1;fontFamily=Verdana;fontSize=8;align=center;" vertex="1" parent="1">
          <mxGeometry x="377.5" y="1045" width="125" height="65" as="geometry" />
        </mxCell>
        <mxCell id="dgmM8Q6lQUMXP6wNt9RR-41" style="edgeStyle=orthogonalEdgeStyle;rounded=0;orthogonalLoop=1;jettySize=auto;html=1;entryX=0;entryY=0.5;entryDx=0;entryDy=0;" edge="1" parent="1" source="dgmM8Q6lQUMXP6wNt9RR-43" target="dgmM8Q6lQUMXP6wNt9RR-44">
          <mxGeometry relative="1" as="geometry" />
        </mxCell>
        <mxCell id="dgmM8Q6lQUMXP6wNt9RR-42" style="edgeStyle=orthogonalEdgeStyle;rounded=0;orthogonalLoop=1;jettySize=auto;html=1;entryX=0.5;entryY=0;entryDx=0;entryDy=0;" edge="1" parent="1" source="dgmM8Q6lQUMXP6wNt9RR-43" target="dgmM8Q6lQUMXP6wNt9RR-39">
          <mxGeometry relative="1" as="geometry" />
        </mxCell>
        <mxCell id="dgmM8Q6lQUMXP6wNt9RR-43" value="status == Nothing?" style="rhombus;whiteSpace=wrap;html=1;rounded=0;shadow=0;labelBackgroundColor=none;strokeWidth=1;fontFamily=Verdana;fontSize=8;align=center;" vertex="1" parent="1">
          <mxGeometry x="246" y="942.5" width="80" height="60" as="geometry" />
        </mxCell>
        <mxCell id="dgmM8Q6lQUMXP6wNt9RR-44" value="清空纹理，设置为默认材质 m_defaultMat" style="rounded=1;whiteSpace=wrap;html=1;shadow=0;labelBackgroundColor=none;strokeWidth=1;fontFamily=Verdana;fontSize=8;align=center;" vertex="1" parent="1">
          <mxGeometry x="385" y="937.5" width="110" height="70" as="geometry" />
        </mxCell>
        <mxCell id="dgmM8Q6lQUMXP6wNt9RR-47" style="edgeStyle=orthogonalEdgeStyle;rounded=0;orthogonalLoop=1;jettySize=auto;html=1;entryX=0.5;entryY=0;entryDx=0;entryDy=0;" edge="1" parent="1" source="dgmM8Q6lQUMXP6wNt9RR-39" target="dgmM8Q6lQUMXP6wNt9RR-72">
          <mxGeometry relative="1" as="geometry">
            <mxPoint x="286" y="1147.5" as="targetPoint" />
          </mxGeometry>
        </mxCell>
        <mxCell id="dgmM8Q6lQUMXP6wNt9RR-48" value="yes" style="text;html=1;strokeColor=none;fillColor=none;align=center;verticalAlign=middle;whiteSpace=wrap;rounded=0;" vertex="1" parent="1">
          <mxGeometry x="326" y="947.5" width="40" height="20" as="geometry" />
        </mxCell>
        <mxCell id="dgmM8Q6lQUMXP6wNt9RR-49" value="no" style="text;html=1;strokeColor=none;fillColor=none;align=center;verticalAlign=middle;whiteSpace=wrap;rounded=0;" vertex="1" parent="1">
          <mxGeometry x="255" y="1012.5" width="40" height="20" as="geometry" />
        </mxCell>
        <mxCell id="dgmM8Q6lQUMXP6wNt9RR-50" value="yes" style="text;html=1;strokeColor=none;fillColor=none;align=center;verticalAlign=middle;whiteSpace=wrap;rounded=0;" vertex="1" parent="1">
          <mxGeometry x="326" y="1045" width="40" height="20" as="geometry" />
        </mxCell>
        <mxCell id="dgmM8Q6lQUMXP6wNt9RR-51" value="no" style="text;html=1;strokeColor=none;fillColor=none;align=center;verticalAlign=middle;whiteSpace=wrap;rounded=0;" vertex="1" parent="1">
          <mxGeometry x="255" y="1117.5" width="40" height="20" as="geometry" />
        </mxCell>
        <mxCell id="dgmM8Q6lQUMXP6wNt9RR-52" value="&lt;font style=&quot;font-size: 19px&quot;&gt;onUpdate&lt;/font&gt;" style="text;html=1;strokeColor=#d6b656;fillColor=#fff2cc;align=center;verticalAlign=middle;whiteSpace=wrap;rounded=0;" vertex="1" parent="1">
          <mxGeometry x="320" y="891.5" width="99" height="30" as="geometry" />
        </mxCell>
        <mxCell id="dgmM8Q6lQUMXP6wNt9RR-62" style="edgeStyle=orthogonalEdgeStyle;rounded=0;orthogonalLoop=1;jettySize=auto;html=1;" edge="1" parent="1" source="dgmM8Q6lQUMXP6wNt9RR-9">
          <mxGeometry relative="1" as="geometry">
            <mxPoint x="530" y="536.25" as="targetPoint" />
          </mxGeometry>
        </mxCell>
        <mxCell id="dgmM8Q6lQUMXP6wNt9RR-63" style="edgeStyle=orthogonalEdgeStyle;rounded=0;orthogonalLoop=1;jettySize=auto;html=1;" edge="1" parent="1" source="dgmM8Q6lQUMXP6wNt9RR-55">
          <mxGeometry relative="1" as="geometry">
            <mxPoint x="530" y="680" as="targetPoint" />
          </mxGeometry>
        </mxCell>
        <mxCell id="dgmM8Q6lQUMXP6wNt9RR-74" style="edgeStyle=orthogonalEdgeStyle;rounded=0;orthogonalLoop=1;jettySize=auto;html=1;entryX=0;entryY=0.5;entryDx=0;entryDy=0;" edge="1" parent="1" source="dgmM8Q6lQUMXP6wNt9RR-72" target="dgmM8Q6lQUMXP6wNt9RR-73">
          <mxGeometry relative="1" as="geometry" />
        </mxCell>
        <mxCell id="dgmM8Q6lQUMXP6wNt9RR-72" value="&lt;span style=&quot;font-family: &amp;#34;verdana&amp;#34; ; font-size: 8px&quot;&gt;status == IsRunning&lt;/span&gt;" style="rhombus;whiteSpace=wrap;html=1;" vertex="1" parent="1">
          <mxGeometry x="246" y="1161.75" width="80" height="80" as="geometry" />
        </mxCell>
        <mxCell id="dgmM8Q6lQUMXP6wNt9RR-73" value="设置材质为 m_runningMat, 并注入前一帧纹理 m_lastRT, 待映射纹理m_waitForRT, 光流算法纹理 m_algRT" style="rounded=1;whiteSpace=wrap;html=1;shadow=0;labelBackgroundColor=none;strokeWidth=1;fontFamily=Verdana;fontSize=8;align=center;" vertex="1" parent="1">
          <mxGeometry x="377.5" y="1140.5" width="120" height="122.5" as="geometry" />
        </mxCell>
      </root>
    </mxGraphModel>
  </diagram>
</mxfile>
